<svg width="113" height="20" viewBox="0 0 113 20" fill="none" xmlns="http://www.w3.org/2000/svg">
<path d="M2.34 5.66H0.52V19.54H2.34V13.6C2.98 14.66 4.28 15.2 5.6 15.2C8.16 15.2 10.28 13.32 10.28 10.36C10.28 7.4 8.16 5.46 5.6 5.46C4.28 5.46 2.98 6.06 2.34 7.12V5.66ZM2.36 10.38C2.36 8.4 3.78 7.24 5.42 7.24C7.1 7.24 8.44 8.52 8.44 10.38C8.44 12.24 7.1 13.42 5.42 13.42C3.92 13.42 2.36 12.38 2.36 10.38ZM12.7075 0.58V15H14.5275V0.58H12.7075ZM24.9708 15H26.7708V5.66H24.9708V7.06C24.3308 6 22.9908 5.46 21.6908 5.46C19.1308 5.46 16.9508 7.34 16.9508 10.32C16.9508 13.28 19.1308 15.2 21.6908 15.2C22.9908 15.2 24.3508 14.6 24.9708 13.56V15ZM24.9508 10.3C24.9508 12.28 23.5108 13.42 21.8508 13.42C20.1708 13.42 18.8108 12.14 18.8108 10.3C18.8108 8.46 20.1708 7.24 21.8508 7.24C23.3708 7.24 24.9508 8.3 24.9508 10.3ZM32.3369 19.54L38.1369 5.66H36.1969L33.3969 12.42L30.5969 5.66H28.6569L32.3969 14.72L30.4369 19.54H32.3369ZM41.1778 16.34C40.9378 16.44 39.8778 17.02 39.6578 17.14C40.5578 18.8 42.1378 19.66 43.8778 19.66C46.9778 19.66 48.9778 17.98 48.9778 13.58V5.66H47.1778V7.12C46.5378 6.06 45.1978 5.46 43.8978 5.46C41.3378 5.46 39.1578 7.4 39.1578 10.36C39.1578 13.32 41.3378 15.2 43.8978 15.2C45.2178 15.2 46.5978 14.6 47.1778 13.48C47.1778 13.56 47.1978 13.62 47.1978 13.7C47.1978 16.8 45.8978 17.94 43.8778 17.94C42.8378 17.94 41.7378 17.38 41.1778 16.34ZM47.1578 10.34C47.1578 12.34 45.5778 13.42 44.0578 13.42C42.3778 13.42 41.0178 12.26 41.0178 10.34C41.0178 8.52 42.3778 7.24 44.0578 7.24C45.7178 7.24 47.1578 8.34 47.1578 10.34ZM53.8244 11.6C53.8244 9.12 54.5844 7.2 56.3844 7.2C56.7644 7.2 57.2644 7.28 57.7644 7.52L58.0444 5.82C57.7844 5.64 57.0844 5.46 56.4244 5.46C55.2044 5.46 54.3044 6.1 53.8244 7.76V5.66H52.0044V15H53.8244V11.6ZM63.9206 15.2C66.5806 15.2 68.8206 13.26 68.8206 10.3C68.8206 7.34 66.5806 5.46 63.9206 5.46C61.2606 5.46 59.0406 7.34 59.0406 10.3C59.0406 13.26 61.2606 15.2 63.9206 15.2ZM63.9206 13.44C62.2206 13.44 60.8406 12.22 60.8406 10.3C60.8406 8.42 62.2206 7.24 63.9206 7.24C65.5806 7.24 67.0006 8.42 67.0006 10.3C67.0006 12.22 65.5806 13.44 63.9206 13.44ZM77.6227 10.7C77.6227 12.7 76.3027 13.42 74.9827 13.42C73.7027 13.42 72.9427 12.52 72.9427 10.94V5.66H71.1227V11.06C71.1027 13.7 72.3827 15.2 74.7227 15.2C75.7427 15.2 77.0427 14.72 77.6227 13.6V15H79.4427V5.66H77.6227V10.7ZM84.2931 9.96C84.2931 7.98 85.6131 7.24 86.9331 7.24C88.2131 7.24 88.9931 8.14 88.9931 9.72V15H90.8131V9.6C90.8131 6.96 89.5531 5.46 87.2131 5.46C86.1931 5.46 84.8331 5.94 84.2931 7.06V5.66H82.4731V15H84.2931V9.96ZM101.123 15H102.943V0.58H101.123V7.06C100.503 6 99.2027 5.46 97.8227 5.46C95.2627 5.46 93.1227 7.34 93.1227 10.32C93.1227 13.28 95.2827 15.2 97.8427 15.2C99.1427 15.2 100.503 14.6 101.123 13.56V15ZM101.103 10.3C101.103 12.28 99.6627 13.42 98.0027 13.42C96.3227 13.42 94.9827 12.14 94.9827 10.3C94.9827 8.46 96.3227 7.24 98.0027 7.24C99.5227 7.24 101.103 8.3 101.103 10.3ZM109.389 11.18C110.089 11.34 110.649 11.66 110.629 12.36C110.609 13.06 110.069 13.52 109.209 13.58C108.629 13.62 108.149 13.52 107.729 13.26C107.269 13.04 107.029 12.6 106.969 12.2H105.309C105.369 14.12 107.109 15.2 108.789 15.2C110.729 15.2 112.409 14.16 112.409 12.4C112.409 11.34 111.909 10.16 109.989 9.68L108.609 9.34C108.129 9.2 107.689 9 107.509 8.62C107.409 8.42 107.409 8.18 107.489 7.88C107.629 7.38 108.189 7.04 108.889 7.04C109.609 7.04 110.249 7.4 110.349 8.1H112.089C111.929 6.2 110.429 5.46 108.849 5.46C107.169 5.46 105.769 6.48 105.609 7.84C105.449 9.58 106.409 10.42 108.109 10.88L109.389 11.18Z" fill="#191F2E"/>
</svg>
