<svg width="770" height="152" viewBox="0 0 770 152" fill="none" xmlns="http://www.w3.org/2000/svg">
<path d="M67.2514 67.1823C67.2514 87.5573 52.7516 100.911 35.0757 100.911C25.4092 100.911 16.295 96.7811 12.0141 89.2093V128.307C12.0141 128.891 11.7813 129.452 11.367 129.865C10.9526 130.278 10.3906 130.51 9.80462 130.51H2.20949C1.6235 130.51 1.06151 130.278 0.647146 129.865C0.232785 129.452 0 128.891 0 128.307V37.1705C0 36.5863 0.232785 36.0261 0.647146 35.613C1.06151 35.1999 1.6235 34.9678 2.20949 34.9678V34.9678C4.80984 34.9678 7.30369 35.9976 9.14241 37.8307C10.9811 39.6638 12.0141 42.1499 12.0141 44.7423V45.0176C16.295 37.7212 25.6854 33.3158 34.9376 33.3158C52.6136 33.3158 67.2514 46.945 67.2514 67.1823ZM55.0992 67.32C55.0992 54.5168 45.7089 44.6046 33.8329 44.6046C22.3711 44.6046 12.0141 53.5531 12.0141 67.32C12.0141 81.2245 23.3378 89.6223 33.8329 89.6223C45.7089 89.6223 55.0992 80.2608 55.0992 67.32Z" fill="#54DDF8"/>
<path d="M83.9608 97.0564V2.2027C83.9608 1.61851 84.1935 1.05824 84.6079 0.645156C85.0223 0.232069 85.5843 0 86.1702 0L93.7654 0C94.3514 0 94.9134 0.232069 95.3277 0.645156C95.7421 1.05824 95.9749 1.61851 95.9749 2.2027V97.0564C95.9749 97.6406 95.7421 98.2009 95.3277 98.614C94.9134 99.0271 94.3514 99.2591 93.7654 99.2591H86.1702C85.5843 99.2591 85.0223 99.0271 84.6079 98.614C84.1935 98.2009 83.9608 97.6406 83.9608 97.0564Z" fill="#54DDF8"/>
<path d="M177.447 34.9678C178.033 34.9678 178.595 35.1999 179.009 35.613C179.424 36.0261 179.657 36.5863 179.657 37.1705V97.0564C179.657 97.6406 179.424 98.2009 179.009 98.6139C178.595 99.027 178.033 99.2591 177.447 99.2591C174.847 99.2584 172.354 98.2282 170.516 96.3953C168.678 94.5623 167.645 92.0765 167.645 89.4846V87.8326C163.364 95.542 154.388 100.911 144.031 100.911C127.184 100.911 112.408 86.7313 112.408 67.0446C112.408 48.0463 126.355 33.3158 144.584 33.3158C154.25 33.3158 163.364 37.4459 167.645 45.0176V44.7423C167.645 42.1504 168.678 39.6647 170.516 37.8317C172.354 35.9987 174.847 34.9686 177.447 34.9678ZM167.645 67.0446C167.645 53.8284 156.46 44.6046 145.688 44.6046C133.951 44.6046 124.56 54.9298 124.56 67.0446C124.56 79.2971 133.951 89.6223 145.827 89.6223C157.286 89.6223 167.645 80.1232 167.645 67.0446Z" fill="#54DDF8"/>
<path d="M254.318 34.9678H254.368C254.732 34.9679 255.09 35.0576 255.41 35.2289C255.731 35.4001 256.004 35.6476 256.206 35.9494C256.408 36.2512 256.531 36.598 256.566 36.9589C256.601 37.3199 256.546 37.6839 256.406 38.0185L218.187 129.155C218.02 129.556 217.737 129.899 217.374 130.14C217.011 130.381 216.585 130.51 216.149 130.51H208.212C207.85 130.51 207.493 130.422 207.174 130.252C206.854 130.083 206.581 129.838 206.379 129.539C206.176 129.24 206.051 128.896 206.013 128.537C205.975 128.178 206.027 127.816 206.162 127.481L218.464 97.3317L193.767 38.0158C193.627 37.6804 193.573 37.3157 193.609 36.9543C193.644 36.5928 193.769 36.2458 193.972 35.9441C194.175 35.6424 194.449 35.3953 194.771 35.225C195.093 35.0547 195.452 34.9663 195.816 34.9678V34.9678C198.677 34.9681 201.472 35.8165 203.848 37.405C206.223 38.9935 208.071 41.2504 209.156 43.8887L224.951 82.3258L241.006 43.8226C242.099 41.2006 243.947 38.9602 246.316 37.3843C248.685 35.8083 251.47 34.9674 254.318 34.9678V34.9678Z" fill="#54DDF8"/>
<path d="M393.422 37.4101L392.229 44.3789C392.175 44.6946 392.052 44.9947 391.87 45.2583C391.687 45.5219 391.449 45.7427 391.172 45.9052C390.896 46.0677 390.586 46.1681 390.267 46.1993C389.947 46.2305 389.624 46.1918 389.321 46.0859C387.086 45.3118 384.74 44.9045 382.375 44.88C369.532 44.88 364.423 58.7845 364.423 75.7178V97.0564C364.423 97.6406 364.19 98.2009 363.776 98.6139C363.361 99.027 362.799 99.2591 362.213 99.2591H354.48C353.894 99.2591 353.332 99.027 352.918 98.6139C352.503 98.2009 352.271 97.6406 352.271 97.0564V37.1705C352.271 36.5863 352.503 36.0261 352.918 35.613C353.332 35.1999 353.894 34.9678 354.48 34.9678C357.117 34.9678 359.646 36.0121 361.511 37.871C363.375 39.7299 364.423 42.2511 364.423 44.88V49.5607C367.737 38.2719 373.951 33.3158 382.513 33.3158C386.059 33.3158 389.694 34.0675 392.039 34.9843C392.515 35.1672 392.913 35.5087 393.165 35.9509C393.417 36.3931 393.508 36.9086 393.422 37.4101Z" fill="#54DDF8"/>
<path d="M399.09 67.0446C399.09 46.6697 414.418 33.3158 432.784 33.3158C451.151 33.3158 466.617 46.6697 466.617 67.0446C466.617 87.4196 451.151 100.911 432.784 100.911C414.418 100.911 399.09 87.4196 399.09 67.0446ZM454.603 67.0446C454.603 53.8284 444.66 44.6046 432.784 44.6046C421.046 44.6046 411.242 53.8284 411.242 67.0446C411.242 80.3985 421.046 89.6223 432.784 89.6223C444.66 89.6223 454.603 80.3985 454.603 67.0446Z" fill="#54DDF8"/>
<path d="M539.669 34.9679C540.255 34.9679 540.817 35.2 541.231 35.613C541.645 36.0261 541.878 36.5864 541.878 37.1706V97.0565C541.878 97.6407 541.645 98.2009 541.231 98.614C540.817 99.0271 540.255 99.2592 539.669 99.2592H532.073C531.488 99.2592 530.926 99.0271 530.511 98.614C530.097 98.2009 529.864 97.6407 529.864 97.0565V89.2094C525.997 97.3318 515.64 100.911 508.46 100.911C492.303 100.911 482.36 90.173 482.498 72.1384V37.1706C482.498 36.5864 482.731 36.0261 483.145 35.613C483.56 35.2 484.122 34.9679 484.707 34.9679C487.308 34.9679 489.802 35.9977 491.64 37.8308C493.479 39.6638 494.512 42.15 494.512 44.7424V71.8631C494.512 82.7389 501.003 89.6224 509.979 89.6224C518.955 89.6224 529.726 84.2533 529.864 70.3488V44.7424C529.864 42.15 530.897 39.6638 532.736 37.8308C534.574 35.9977 537.068 34.9679 539.669 34.9679Z" fill="#54DDF8"/>
<path d="M622.105 62.0886V97.0564C622.105 97.6406 621.872 98.2009 621.458 98.6139C621.043 99.027 620.481 99.2591 619.895 99.2591H612.306C611.72 99.2591 611.158 99.027 610.743 98.6139C610.329 98.2009 610.096 97.6406 610.096 97.0564V62.7769C610.096 52.0387 603.468 45.1553 594.492 45.1553C585.516 45.1553 574.744 50.5244 574.744 64.4289V97.0564C574.744 97.6406 574.512 98.2009 574.097 98.6139C573.683 99.027 573.121 99.2591 572.535 99.2591H564.94C564.354 99.2591 563.792 99.027 563.377 98.6139C562.963 98.2009 562.73 97.6406 562.73 97.0564V37.1705C562.73 36.5863 562.963 36.0261 563.377 35.613C563.792 35.1999 564.354 34.9678 564.94 34.9678H572.535C573.121 34.9678 573.683 35.1999 574.097 35.613C574.512 36.0261 574.744 36.5863 574.744 37.1705V44.7423C578.611 36.8952 589.106 33.3158 596.149 33.3158C612.162 33.3158 622.248 44.054 622.105 62.0886Z" fill="#54DDF8"/>
<path d="M702.895 0C703.481 0 704.043 0.232069 704.457 0.645156C704.872 1.05824 705.104 1.61851 705.104 2.2027V97.0564C705.104 97.6406 704.872 98.2009 704.457 98.614C704.043 99.0271 703.481 99.2591 702.895 99.2591H695.3C694.714 99.2591 694.152 99.0271 693.738 98.614C693.323 98.2009 693.09 97.6406 693.09 97.0564V89.2093C688.809 96.5057 679.419 100.911 670.167 100.911C652.491 100.911 637.853 87.2819 637.853 67.0446C637.853 46.6697 652.353 33.3158 670.029 33.3158C679.695 33.3158 688.809 37.4459 693.09 45.0177V9.77448C693.09 7.18212 694.123 4.69595 695.962 2.86288C697.801 1.02981 700.295 0 702.895 0V0ZM693.09 66.907C693.09 53.0024 681.767 44.6047 671.134 44.6047C659.396 44.6047 650.005 53.9661 650.005 66.907C650.005 79.7102 659.396 89.6223 671.134 89.6223C682.733 89.6223 693.082 80.6738 693.082 66.907H693.09Z" fill="#54DDF8"/>
<path d="M723.416 80.3985H730.21C730.712 80.399 731.199 80.57 731.59 80.8833C731.982 81.1966 732.255 81.6335 732.364 82.1221C733.364 86.8221 737.971 90.4483 745.005 90.4483C753.153 90.4483 757.986 86.4559 757.986 81.2245C757.986 76.4061 754.257 73.9281 749.148 72.8267L740.31 70.7617C729.539 67.8706 723.324 62.6392 723.324 52.3141C723.324 41.7136 732.439 33.3158 745.419 33.3158C755.602 33.3158 766.15 38.3545 767.514 49.5607C767.553 49.8708 767.526 50.1857 767.434 50.4844C767.341 50.7832 767.186 51.0589 766.979 51.2933C766.772 51.5277 766.516 51.7154 766.231 51.8439C765.945 51.9724 765.635 52.0388 765.321 52.0387H757.958C757.469 52.0384 756.993 51.8759 756.606 51.5769C756.219 51.2779 755.943 50.8593 755.82 50.3867C754.743 46.3585 750.222 43.7786 745.704 43.7786C739.49 43.7786 735.347 47.771 735.347 52.7271C735.347 57.1325 739.49 59.4728 743.632 60.4365L753.161 62.7769C766.556 66.0809 770.008 74.0657 770.008 81.3622C770.008 93.3393 758.408 100.911 745.013 100.911C734.187 100.911 723.123 94.5563 721.242 82.9674C721.189 82.652 721.205 82.3289 721.289 82.0204C721.374 81.7119 721.525 81.4254 721.732 81.181C721.939 80.9365 722.196 80.7399 722.487 80.6047C722.778 80.4696 723.095 80.3992 723.416 80.3985Z" fill="#54DDF8"/>
<path d="M319.272 89.2093V101.208L299.185 112.773C296.775 114.161 295.017 116.446 294.297 119.125C293.577 121.805 293.954 124.66 295.346 127.063L295.373 127.09C295.668 127.593 296.149 127.959 296.713 128.108C297.277 128.258 297.878 128.179 298.384 127.889L326.058 111.947C327.573 111.07 328.845 109.831 329.757 108.34C330.67 106.85 331.194 105.155 331.283 103.411V103.381C331.3 103.042 331.3 102.704 331.283 102.362V37.1705C331.283 36.5863 331.05 36.0261 330.636 35.613C330.222 35.1999 329.66 34.9678 329.074 34.9678C326.473 34.9678 323.979 35.9976 322.141 37.8307C320.302 39.6638 319.269 42.1499 319.269 44.7423V45.0176C314.988 37.5835 305.874 33.3158 296.207 33.3158C278.531 33.3158 264.032 46.6697 264.032 67.0446C264.032 87.2819 278.67 100.911 296.345 100.911C305.598 100.911 314.988 96.5057 319.272 89.2093ZM276.187 66.907C276.187 53.9661 285.577 44.6046 297.315 44.6046C307.948 44.6046 319.272 53.0024 319.272 66.907C319.272 80.6738 308.915 89.6223 297.315 89.6223C285.577 89.6223 276.187 79.7101 276.187 66.907Z" fill="#54DDF8"/>
<path d="M329.446 141.179C328.408 140.138 327.04 139.487 325.574 139.339C324.108 139.19 322.637 139.553 321.409 140.366C320.182 141.178 319.276 142.389 318.844 143.793C318.412 145.198 318.483 146.707 319.043 148.066C319.603 149.424 320.618 150.547 321.915 151.242C323.213 151.938 324.712 152.163 326.157 151.88C327.603 151.598 328.905 150.824 329.842 149.691C330.779 148.558 331.294 147.136 331.297 145.667C331.3 143.986 330.634 142.372 329.446 141.179V141.179Z" fill="#54DDF8"/>
<path d="M329.894 117.803L329.866 117.776C329.572 117.273 329.09 116.907 328.526 116.757C327.962 116.608 327.362 116.687 326.856 116.977L299.182 132.892C296.772 134.279 295.014 136.564 294.295 139.244C293.575 141.924 293.952 144.779 295.343 147.182L295.371 147.209C295.665 147.712 296.147 148.078 296.711 148.227C297.275 148.377 297.875 148.298 298.381 148.008L326.055 132.066C328.457 130.678 330.209 128.398 330.929 125.725C331.648 123.052 331.276 120.203 329.894 117.803V117.803Z" fill="#54DDF8"/>
</svg>
